<?xml version="1.0" encoding="utf-8"?>
<!-- Generator: Adobe Illustrator 27.8.1, SVG Export Plug-In . SVG Version: 6.00 Build 0)  -->
<svg version="1.1" id="outline" xmlns="http://www.w3.org/2000/svg" xmlns:xlink="http://www.w3.org/1999/xlink" x="0px" y="0px"
	 viewBox="0 0 512 512" style="enable-background:new 0 0 512 512;" xml:space="preserve">
<style type="text/css">
	.st0{fill:#021DA3;}
	.st1{fill:#11E2AB;}
	.st2{fill:none;stroke:#021DA3;stroke-width:20;stroke-linecap:round;stroke-linejoin:round;stroke-miterlimit:13.3333;}
	.st3{clip-path:url(#SVGID_00000050637238773606423150000004713010210091807670_);}
	.st4{fill:none;stroke:#11E2AB;stroke-width:20;stroke-linecap:round;stroke-linejoin:round;stroke-miterlimit:13.3333;}
</style>
<g id="g2582" transform="translate(321,289)">
	<path id="path2584" class="st2" d="M-4.6-55.3V-114"/>
</g>
<g>
	<defs>
		<rect id="SVGID_1_" x="22" y="29.2" width="469.6" height="469.6"/>
	</defs>
	<clipPath id="SVGID_00000052095863539592169560000000013712074436212923_">
		<use xlink:href="#SVGID_1_"  style="overflow:visible;"/>
	</clipPath>
	<g id="g2588" style="clip-path:url(#SVGID_00000052095863539592169560000000013712074436212923_);">
		<g id="g2594" transform="translate(321,432.333)">
			<path id="path2596" class="st2" d="M-4.6-330.1v-57.1c0-5-4.1-9.1-9.1-9.1h-269.4c-5,0-9.1,4.1-9.1,9.1V0c0,5,4.1,9.1,9.1,9.1
				h189.5"/>
		</g>
		<g id="g2598" transform="translate(171.0229,435.9687)">
			<path id="path2600" class="st2" d="M7.8-337.1h79.9"/>
		</g>
		<g id="g2602" transform="translate(171.0229,382.1641)">
			<path id="path2604" class="st2" d="M7.8-233.9h47.1"/>
		</g>
		<g id="g2606" transform="translate(65.0229,244.5537)">
			<path id="path2608" class="st2" d="M16.6,29.9h147.7"/>
		</g>
		<g id="g2610" transform="translate(65.0229,190.748)">
			<path id="path2612" class="st2" d="M16.6,133.1h146.7"/>
		</g>
		<g id="g2614" transform="translate(65.0229,136.9434)">
			<path id="path2616" class="st2" d="M16.6,236.2H107"/>
		</g>
		<g id="g2618" transform="translate(114.543,431.9385)">
			<path id="path2620" class="st4" d="M12.5-329.3c0,0-11-10.2-28.1-5.1c-15.6,4.7-19.5,26.1-8.9,34.4c6.1,4.8,15.3,8.7,27.6,13.1
				c27.7,9.8,17.4,48.8-10.7,49c-11,0.1-16.1-0.6-25.8-6.9"/>
		</g>
		<g id="g2622" transform="translate(92.7183,453.3887)">
			<path id="path2624" class="st4" d="M14.3-370.5v125.4"/>
		</g>
		<g id="g2626" transform="translate(362.7783,7.5)">
			<path id="path2628" class="st4" d="M-8.1,484.4h-117.3c-5.1,0-9.2-4.1-9.2-9.2V236.8c0-5.1,4.1-9.2,9.2-9.2H-8.1
				c5.1,0,9.2,4.1,9.2,9.2v65.5"/>
		</g>
		<g id="g2630" transform="translate(328.9673,123.8105)">
			<path id="path2632" class="st4" d="M-5.3,261.4c-6.4,8.2-16.4,13.5-27.6,13.5c-19.4,0-35.1-15.7-35.1-35.1s15.7-35.1,35.1-35.1
				c11.8,0,22.2,5.8,28.6,14.7"/>
		</g>
		<g id="g2634" transform="translate(224.8677,50.7373)">
			<path id="path2636" class="st4" d="M3.3,401.5c21.9,0,39.7,17.7,39.7,39.7H12.5c-5.1,0-9.2-4.1-9.2-9.2V401.5z"/>
		</g>
		<g id="g2638" transform="translate(268.105,287.3916)">
			<path id="path2640" class="st4" d="M-0.2-52.2c0,21.9-17.7,39.7-39.7,39.7V-43c0-5.1,4.1-9.2,9.2-9.2H-0.2z"/>
		</g>
		<g id="g2642" transform="translate(372.7783,244.1543)">
			<path id="path2644" class="st4" d="M-8.9,30.7c-21.9,0-39.7-17.7-39.7-39.7h30.5c5.1,0,9.2,4.1,9.2,9.2V30.7z"/>
		</g>
		<g id="g2646" transform="translate(480.582,7.5)">
			<path id="path2648" class="st2" d="M-17.8,484.4h12.8c5.1,0,9.2-4.1,9.2-9.2v-21h-80.3v30.2h21.9"/>
		</g>
		<path id="path2650" class="st2" d="M404.4,461.7h80.3v-30.2h-80.3V461.7z"/>
		<g id="g2652" transform="translate(416.917,73.2773)">
			<path id="path2654" class="st2" d="M-12.6,358.3h80.3v-21c0-5.1-4.1-9.2-9.2-9.2h-71.2V358.3z"/>
		</g>
		<g id="g2656" transform="translate(339.334,7.5)">
			<path id="path2658" class="st2" d="M-6.1,484.4H65v-30.2h-80.3v21C-15.3,480.3-11.2,484.4-6.1,484.4z"/>
		</g>
		<path id="path2660" class="st2" d="M324,461.7h80.3v-30.2H324V461.7z"/>
		<path id="path2662" class="st2" d="M324,431.6h80.3v-30.2H324V431.6z"/>
		<path id="path2664" class="st2" d="M324,401.4h80.3v-30.2H324V401.4z"/>
		<path id="path2666" class="st2" d="M324,371.2h80.3v-30.2H324V371.2z"/>
		<g id="g2668" transform="translate(329.334,171.9434)">
			<path id="path2670" class="st2" d="M-5.3,169.1H75v-21c0-5.1-4.1-9.2-9.2-9.2h-62c-5.1,0-9.2,4.1-9.2,9.2V169.1z"/>
		</g>
		<g id="g2672" transform="translate(268.9326,340.4229)">
			<path id="path2674" class="st4" d="M-0.3-153.9L83.8-238l41.3,41.3l84.1-84.1"/>
		</g>
		<g id="g2676" transform="translate(458.8486,478.7656)">
			<path id="path2678" class="st4" d="M-16-419.1h35.4v35.4"/>
		</g>
	</g>
</g>
</svg>
