<?xml version="1.0" encoding="utf-8"?>
<!-- Generator: Adobe Illustrator 27.8.1, SVG Export Plug-In . SVG Version: 6.00 Build 0)  -->
<svg version="1.1" id="outline" xmlns="http://www.w3.org/2000/svg" xmlns:xlink="http://www.w3.org/1999/xlink" x="0px" y="0px"
	 viewBox="0 0 512 512" style="enable-background:new 0 0 512 512;" xml:space="preserve">
<style type="text/css">
	.st0{fill:#021DA3;}
	.st1{fill:#11E2AB;}
	.st2{fill:none;stroke:#021DA3;stroke-width:20;stroke-linecap:round;stroke-linejoin:round;stroke-miterlimit:13.3333;}
	.st3{clip-path:url(#SVGID_00000143605547525080883020000008838923535214365865_);}
	.st4{fill:none;stroke:#11E2AB;stroke-width:20;stroke-linecap:round;stroke-linejoin:round;stroke-miterlimit:13.3333;}
</style>
<path class="st0" d="M439.6,397.7c-24.2,0-43.9-19.6-43.9-43.8c0-24.2,19.6-43.9,43.8-43.9s43.9,19.6,43.9,43.8c0,0,0,0,0,0
	C483.4,378.1,463.8,397.7,439.6,397.7z M439.6,326c-15.4,0-27.9,12.4-27.9,27.8c0,15.4,12.4,27.9,27.8,27.9
	c15.4,0,27.9-12.4,27.9-27.8c0,0,0,0,0,0C467.4,338.5,455,326,439.6,326z"/>
<path class="st0" d="M208.4,397.7c-24.2,0-43.9-19.6-43.9-43.8c0-24.2,19.6-43.9,43.8-43.9c24.2,0,43.9,19.6,43.9,43.8c0,0,0,0,0,0
	C252.2,378.1,232.6,397.7,208.4,397.7z M208.4,326c-15.4,0-27.9,12.4-27.9,27.8c0,15.4,12.4,27.9,27.8,27.9s27.9-12.4,27.9-27.8
	c0,0,0,0,0,0C236.3,338.5,223.8,326.1,208.4,326z"/>
<path class="st0" d="M497.3,361.9h-21.9c-4.4,0-8-3.6-8-8c0-4.4,3.6-8,8-8H495v-42.4c0-5.7-1.5-11.4-4.3-16.4l-43.3-77.6
	c-0.8-1.3-2.2-2.2-3.7-2.2h-59v138.7h19.1c4.4,0,8,3.6,8,8c0,4.4-3.6,8-8,8h-27.1c-4.4,0-8-3.6-8-8V199.2c0-4.4,3.6-8,8-8h67
	c7.3,0,14.1,4,17.7,10.4l43.3,77.7c4.1,7.4,6.3,15.7,6.3,24.2v44.7C511,355.7,504.9,361.9,497.3,361.9L497.3,361.9z"/>
<path class="st0" d="M172.6,361.9H95.9c-4.4,0-8-3.6-8-8v-61.5c0-4.4,3.6-8,8-8s8,3.6,8,8l0,0v53.5h68.7c4.4,0,8,3.6,8,8
	C180.6,358.3,177,361.9,172.6,361.9z"/>
<path class="st0" d="M95.9,264c-4.4,0-8-3.6-8-8v-53.7c0-4.4,3.6-8,8-8s8,3.6,8,8V256C103.9,260.4,100.3,264,95.9,264z"/>
<path class="st0" d="M376.7,361.9H244.3c-4.4,0-8-3.6-8-8c0-4.4,3.6-8,8-8h124.4V136.6H103.9v32.9c0,4.4-3.6,8-8,8s-8-3.6-8-8v-34.4
	c0-8,6.5-14.5,14.5-14.5h267.7c8,0,14.5,6.5,14.5,14.5v218.8C384.7,358.3,381.1,361.9,376.7,361.9z"/>
<path class="st1" d="M127.5,300.4H26c-4.4,0-8-3.6-8-8s3.6-8,8-8h101.5c4.4,0,8,3.6,8,8S132,300.4,127.5,300.4z"/>
<path class="st1" d="M208.4,264H66.8c-4.4,0-8-3.6-8-8c0-4.4,3.6-8,8-8h141.7c4.4,0,8,3.6,8,8C216.4,260.4,212.9,264,208.4,264z"/>
<path class="st1" d="M62.4,221.7H7c-4.4,0-8-3.6-8-8s3.6-8,8-8h55.3c4.4,0,8,3.6,8,8S66.8,221.7,62.4,221.7z"/>
<path class="st1" d="M151.1,177.5H53.4c-4.4,0-8-3.6-8-8s3.6-8,8-8h97.7c4.4,0,8,3.6,8,8S155.5,177.5,151.1,177.5z"/>
</svg>
