<?xml version="1.0" encoding="utf-8"?>
<!-- Generator: Adobe Illustrator 27.8.1, SVG Export Plug-In . SVG Version: 6.00 Build 0)  -->
<svg version="1.1" id="outline" xmlns="http://www.w3.org/2000/svg" xmlns:xlink="http://www.w3.org/1999/xlink" x="0px" y="0px"
	 viewBox="0 0 512 512" style="enable-background:new 0 0 512 512;" xml:space="preserve">
<style type="text/css">
	.st0{fill:#021DA3;}
	.st1{fill:#11E2AB;}
	.st2{fill:none;stroke:#021DA3;stroke-width:17.0079;stroke-linecap:round;stroke-linejoin:round;stroke-miterlimit:13.3333;}
	.st3{fill:none;}
	.st4{fill:none;stroke:#021DA3;stroke-width:17.0079;stroke-miterlimit:10;}
	.st5{fill:none;stroke:#11E2AB;stroke-width:17.0079;stroke-linecap:round;stroke-linejoin:round;stroke-miterlimit:13.3333;}
	.st6{fill:none;stroke:#021DA3;stroke-width:14.1732;stroke-miterlimit:10;}
	.st7{fill:none;stroke:#11E2AB;stroke-width:20;stroke-linecap:round;stroke-linejoin:round;stroke-miterlimit:13.3333;}
</style>
<path class="st4" d="M367.2,445.3v-87.6h-31.8c-12,0-21.6,9.7-21.6,21.6v68.7h7.7"/>
<rect x="80.4" y="404.8" class="st4" width="59.2" height="65.7"/>
<g>
	<g>
		<g>
			<polyline class="st4" points="41.3,375.4 41.3,470.2 178.6,470.6 178.6,339 			"/>
		</g>
		<g>
			<g>
				<polyline class="st4" points="190.8,384.1 109.9,313.5 29.1,384.1 				"/>
			</g>
		</g>
	</g>
</g>
<g>
	<g>
		<polygon class="st4" points="193.6,194.6 53.6,194.6 36,88.3 211.2,88.3 		"/>
		<line class="st4" x1="165.6" y1="125.3" x2="162" y2="157.6"/>
		<line class="st4" x1="85.2" y1="157.6" x2="81.6" y2="125.3"/>
		<line class="st4" x1="29.1" y1="88.3" x2="218.2" y2="88.3"/>
		<line class="st4" x1="123.6" y1="124.2" x2="123.6" y2="156.7"/>
		<g>
			<line class="st4" x1="76.4" y1="87.5" x2="94.1" y2="52.6"/>
			<line class="st4" x1="170.8" y1="87.5" x2="153.2" y2="52.6"/>
		</g>
	</g>
</g>
<g>
	<polygon class="st4" points="434,124.7 403.7,111.4 373.3,124.7 373.3,52.6 434,52.6 	"/>
	<rect x="327.3" y="52.6" class="st4" width="152.7" height="141.9"/>
</g>
<g>
	<line class="st5" x1="231.2" y1="178.7" x2="282.9" y2="178.7"/>
	<polyline class="st5" points="271.2,162.8 287.1,178.7 271.2,194.6 	"/>
</g>
<g>
	<line class="st5" x1="274.2" y1="427.2" x2="224.3" y2="427.2"/>
	<polyline class="st5" points="236.1,443.1 220.2,427.2 236.1,411.3 	"/>
</g>
<g>
	<line class="st5" x1="403.7" y1="232.7" x2="403.7" y2="273.4"/>
	<polyline class="st5" points="419.5,261.7 403.7,277.6 387.8,261.7 	"/>
</g>
<g>
	<line class="st5" x1="109.9" y1="276.6" x2="109.9" y2="236.8"/>
	<polyline class="st5" points="94.1,248.6 109.9,232.7 125.8,248.6 	"/>
</g>
<path class="st4" d="M456.7,448.1H480V339.1c0-11.2-9-20.2-20.2-20.2h-72.4c-11.2,0-20.2,9.1-20.2,20.2v108.9h43.4"/>
<ellipse class="st4" cx="433.8" cy="448.1" rx="22.4" ry="22.5"/>
<ellipse class="st4" cx="344.7" cy="448.1" rx="22.4" ry="22.5"/>
</svg>
