<?xml version="1.0" encoding="utf-8"?>
<!-- Generator: Adobe Illustrator 27.8.1, SVG Export Plug-In . SVG Version: 6.00 Build 0)  -->
<svg version="1.1" id="outline" xmlns="http://www.w3.org/2000/svg" xmlns:xlink="http://www.w3.org/1999/xlink" x="0px" y="0px"
	 viewBox="0 0 512 512" style="enable-background:new 0 0 512 512;" xml:space="preserve">
<style type="text/css">
	.st0{fill:#021DA3;}
	.st1{fill:#11E2AB;}
	.st2{fill:none;stroke:#021DA3;stroke-width:17.0079;stroke-linecap:round;stroke-linejoin:round;stroke-miterlimit:13.3333;}
	.st3{fill:none;}
	.st4{fill:none;stroke:#021DA3;stroke-width:17.0079;stroke-miterlimit:10;}
	.st5{fill:none;stroke:#11E2AB;stroke-width:17.0079;stroke-linecap:round;stroke-linejoin:round;stroke-miterlimit:13.3333;}
	.st6{fill:none;stroke:#021DA3;stroke-width:14.1732;stroke-miterlimit:10;}
	.st7{fill:none;stroke:#11E2AB;stroke-width:20;stroke-linecap:round;stroke-linejoin:round;stroke-miterlimit:13.3333;}
</style>
<rect x="31.9" y="24.9" class="st3" width="462.2" height="462.2"/>
<g id="g19">
	<g id="g25" transform="translate(255.9921,502)">
		<path id="path27" class="st4" d="M7-468.1l187.8,58.8v158C194.8-140.3,116-44.9,7-23.9l0,0l0,0c-109-21-187.8-116.3-187.8-227.3
			v-158L7-468.1"/>
	</g>
	<g id="g29" transform="translate(384.6779,168.0953)">
		<path id="path31" class="st4" d="M-5.5,167.2C8,141.8,15.5,112.9,15.5,82.6V-38.2l-137.2-43l-137.2,43V82.6
			c0,83.3,57.1,155.7,137.2,175.6c23.4-5.8,44.8-16.1,63.4-29.8"/>
	</g>
	<g id="g33" transform="translate(237.8359,190.7437)">
		<path id="path35" class="st5" d="M8.8,124.1l-60.5-60.5L-21.1,33L8.8,62.9L71.4,0.2L102,30.9L8.8,124.1z"/>
	</g>
</g>
</svg>
