<?xml version="1.0" encoding="utf-8"?>
<!-- Generator: Adobe Illustrator 27.8.1, SVG Export Plug-In . SVG Version: 6.00 Build 0)  -->
<svg version="1.1" id="outline" xmlns="http://www.w3.org/2000/svg" xmlns:xlink="http://www.w3.org/1999/xlink" x="0px" y="0px"
	 viewBox="0 0 508.6 510.6" style="enable-background:new 0 0 508.6 510.6;" xml:space="preserve">
<style type="text/css">
	.st0{fill:#021DA3;}
	.st1{fill:#11E2AB;}
	.st2{fill:none;stroke:#021DA3;stroke-width:17.0079;stroke-linecap:round;stroke-linejoin:round;stroke-miterlimit:13.3333;}
	.st3{fill:none;}
	.st4{fill:none;stroke:#021DA3;stroke-width:17.0079;stroke-miterlimit:10;}
	.st5{fill:none;stroke:#11E2AB;stroke-width:17.0079;stroke-linecap:round;stroke-linejoin:round;stroke-miterlimit:13.3333;}
	.st6{fill:none;stroke:#021DA3;stroke-width:14.1732;stroke-miterlimit:10;}
	.st7{fill:none;stroke:#11E2AB;stroke-width:20;stroke-linecap:round;stroke-linejoin:round;stroke-miterlimit:13.3333;}
	.st8{fill-rule:evenodd;clip-rule:evenodd;fill:#021DA3;}
	.st9{fill-rule:evenodd;clip-rule:evenodd;fill:#11E2AB;}
	.st10{fill:none;stroke:#11E2AB;stroke-width:17.0079;stroke-linecap:square;stroke-linejoin:round;stroke-miterlimit:10;}
</style>
<path class="st8" d="M364.5,362.1v-38.4l52.2-21.9v38.4L364.5,362.1z M304.4,340.2v-38.4l52.2,21.9v38.4L304.4,340.2z M360.5,274.9
	l-49.9,21l49.9,21l49.9-21L360.5,274.9z M422.2,292.2l-60.1-25.3c-1-0.4-2.1-0.4-3,0l-60.1,25.3c-1.4,0.6-2.4,2-2.4,3.6v47
	c0,1.6,1,3,2.4,3.6l60.1,25.3c1,0.4,2.1,0.4,3,0v0l60.1-25.3c1.4-0.6,2.4-2,2.4-3.6v-47C424.6,294.3,423.6,292.8,422.2,292.2z
	 M364.5,225.5v-38.4l52.2-21.9v38.4L364.5,225.5z M304.4,203.6v-38.4l52.2,21.9v38.4L304.4,203.6z M360.5,138.3l-49.9,21l49.9,21
	l49.9-21L360.5,138.3z M422.2,155.6l-60.1-25.3c-1-0.4-2.1-0.4-3,0l-60.1,25.3c-1.4,0.6-2.4,2.1-2.4,3.6v47c0,1.6,1,3,2.4,3.6
	l60.1,25.3c1,0.4,2.1,0.4,3,0v0l60.1-25.3c1.4-0.6,2.4-2,2.4-3.6v-47C424.6,157.6,423.6,156.2,422.2,155.6L422.2,155.6z
	 M150.3,292.4h34.2v5.7h-34.2V292.4z M149.9,305.9h34.9c4.2,0,7.5-3.4,7.5-7.5V292c0-4.1-3.3-7.5-7.5-7.5h-34.9
	c-4.1,0-7.5,3.4-7.5,7.5v6.5C142.4,302.6,145.8,305.9,149.9,305.9z M136.5,283.4c1.6,1.5,1.6,4,0,5.6l-17.8,18
	c-1.5,1.6-4.1,1.6-5.6,0l-8.7-8.7c-3.7-3.7,1.9-9.3,5.6-5.6l5.9,5.9l15-15.2C132.5,281.9,134.9,281.9,136.5,283.4L136.5,283.4z
	 M150.3,248.7h34.2v5.7h-34.2V248.7z M149.9,262.3h34.9c4.2,0,7.5-3.4,7.5-7.5v-6.5c0-4.1-3.3-7.5-7.5-7.5h-34.9
	c-4.1,0-7.5,3.4-7.5,7.5v6.5C142.4,259,145.8,262.3,149.9,262.3z M136.5,239.8c1.6,1.5,1.6,4,0,5.6l-17.8,18c-1.5,1.6-4.1,1.6-5.6,0
	l-8.7-8.7c-3.7-3.7,1.9-9.3,5.6-5.6l5.9,5.9l15-15.2C132.5,238.3,134.9,238.2,136.5,239.8z M150.3,205.1h34.2v5.7h-34.2V205.1z
	 M149.9,218.7h34.9c4.2,0,7.5-3.4,7.5-7.5v-6.5c0-4.1-3.3-7.5-7.5-7.5h-34.9c-4.1,0-7.5,3.4-7.5,7.5v6.5
	C142.4,215.3,145.8,218.7,149.9,218.7z M115.9,211.4l15-15.2c3.6-3.7,9.3,1.9,5.6,5.6l-17.8,18c-1.5,1.6-4.1,1.6-5.6,0l-8.7-8.7
	c-3.7-3.7,1.9-9.3,5.6-5.6L115.9,211.4z M72.5,355.1c0,5,4,9,9,9h132.7c5,0,9-4,9-9V148c0-5-4-9-9-9h-43.9v11.5h37.5
	c2.2,0,3.9,1.8,3.9,3.9v194.2c0,2.2-1.7,3.9-3.9,3.9H88c-2.2,0-3.9-1.8-3.9-3.9V154.5c0-2.2,1.7-3.9,3.9-3.9h37.5V139H81.5
	c-5,0-9,4-9,9L72.5,355.1z M163.7,169.8H132c-3.6,0-6.5-2.9-6.5-6.5v-4.8H91.9v186.3h111.9V158.5h-33.5v4.8
	C170.2,166.8,167.3,169.8,163.7,169.8L163.7,169.8z M133.4,126.4h29v35.5h-29V126.4z M231.1,355.1V148c0-9.3-7.6-16.9-16.9-16.9
	h-43.9v-6.1c0-3.6-2.9-6.5-6.5-6.5H132c-3.6,0-6.5,2.9-6.5,6.5v6.1H81.5c-9.3,0-16.9,7.6-16.9,16.9v207.1c0,9.3,7.6,16.9,16.9,16.9
	h132.7C223.5,372,231.1,364.5,231.1,355.1L231.1,355.1z"/>
<path class="st9" d="M335,402.8c1.6,1.5,1.6,4,0,5.6c-47.7,47.4-123.4,49.9-173.7,6.6l1.1,26.4c0.1,2.2-1.7,4.1-4,4.1
	c-2.1,0-3.9-1.7-3.9-3.8l-1.5-36c0-1,0.6-2.6,1.1-2.9c0,0,0,0,0-0.1c0.7-0.7,1.7-1.1,2.6-1.2l36-1.5c2.2-0.1,4,1.6,4.1,3.8
	c0.1,2.2-1.6,4-3.8,4.1l-26.5,1.1c47.1,40.3,118.3,38.2,162.9-6.3C331,401.3,333.5,401.3,335,402.8L335,402.8z"/>
<path class="st9" d="M154.2,103.4c-1.5-1.5-1.5-4,0-5.6c47.6-47.5,123.6-49.8,173.7-6.6l-1.1-26.4c-0.1-2.2,1.6-4,3.8-4.1
	c2.2-0.1,4,1.6,4.1,3.8l1.5,36.8c-0.1,1-1,2-1,2c0,0,0,0,0,0.1c-0.4,0.2-1.1,1.2-2.7,1.2l-36,1.5c-2.2,0.1-4-1.6-4.1-3.8
	c-0.1-2.2,1.6-4,3.8-4.1l26.5-1.1c-47.1-40.3-118.3-38.2-162.8,6.3C158.2,104.9,155.7,104.9,154.2,103.4L154.2,103.4z"/>
</svg>
