<?xml version="1.0" encoding="utf-8"?>
<!-- Generator: Adobe Illustrator 27.8.1, SVG Export Plug-In . SVG Version: 6.00 Build 0)  -->
<svg version="1.1" id="outline" xmlns="http://www.w3.org/2000/svg" xmlns:xlink="http://www.w3.org/1999/xlink" x="0px" y="0px"
	 viewBox="0 0 508.6 507.6" style="enable-background:new 0 0 508.6 507.6;" xml:space="preserve">
<style type="text/css">
	.st0{fill:#021DA3;}
	.st1{fill:#11E2AB;}
	.st2{fill:none;stroke:#021DA3;stroke-width:17.0079;stroke-linecap:round;stroke-linejoin:round;stroke-miterlimit:13.3333;}
	.st3{fill:none;}
	.st4{fill:none;stroke:#021DA3;stroke-width:17.0079;stroke-miterlimit:10;}
	.st5{fill:none;stroke:#11E2AB;stroke-width:17.0079;stroke-linecap:round;stroke-linejoin:round;stroke-miterlimit:13.3333;}
	.st6{fill:none;stroke:#021DA3;stroke-width:14.1732;stroke-miterlimit:10;}
	.st7{fill:none;stroke:#11E2AB;stroke-width:20;stroke-linecap:round;stroke-linejoin:round;stroke-miterlimit:13.3333;}
	.st8{fill-rule:evenodd;clip-rule:evenodd;fill:#021DA3;}
	.st9{fill-rule:evenodd;clip-rule:evenodd;fill:#11E2AB;}
	.st10{fill:none;stroke:#11E2AB;stroke-width:17.0079;stroke-linecap:square;stroke-linejoin:round;stroke-miterlimit:10;}
</style>
<path class="st0" d="M144.3,264c1.2,2.2,3.6,3.6,6.1,3.6c2.5,0,4.8-1.4,6.1-3.6l23.6-43c36.2-12.6,60.3-46.4,60.3-85
	c0-49.7-40.4-90-90-90s-90,40.4-90,90c0,38.6,24.1,72.4,60.3,85L144.3,264z M150.4,94.5c22.9,0,41.5,18.6,41.5,41.5
	s-18.6,41.5-41.5,41.5s-41.5-18.6-41.5-41.5S127.5,94.5,150.4,94.5z"/>
<path class="st1" d="M126.2,330h117.7c21,0,38.1-17.1,38.1-38.1c0-21-17.1-38.1-38.1-38.1H185c-3.8,0-6.9,3.1-6.9,6.9
	c0,3.8,3.1,6.9,6.9,6.9h58.9c13.4,0,24.2,10.9,24.2,24.2s-10.9,24.2-24.2,24.2H126.2c-21,0-38.1,17.1-38.1,38.1s17.1,38.1,38.1,38.1
	h148.9c3.8,0,6.9-3.1,6.9-6.9s-3.1-6.9-6.9-6.9H126.2c-13.4,0-24.2-10.9-24.2-24.2S112.8,330,126.2,330z"/>
<path class="st0" d="M372,309.2c-42,0-76.2,34.1-76.2,76.2s34.1,76.2,76.2,76.2s76.2-34.1,76.2-76.2S414,309.2,372,309.2z
	 M372,447.7c-34.3,0-62.3-28-62.3-62.3s28-62.3,62.3-62.3s62.3,28,62.3,62.3S406.3,447.7,372,447.7z"/>
<path class="st0" d="M404.4,345.6c-2.1-1.9-5.3-2.4-7.8-1l-69.2,34.6c-2.4,1.1-3.8,3.5-3.8,6.2s1.5,5.1,3.8,6.2l69.2,34.6
	c1,0.6,2.1,0.8,3.1,0.8c1.7,0,3.4-0.6,4.7-1.8c2.1-2,2.8-5.1,1.7-7.7l-12.8-32.1l12.8-32.1C407.2,350.7,406.5,347.6,404.4,345.6z"/>
</svg>
