<?xml version="1.0" encoding="utf-8"?>
<!-- Generator: Adobe Illustrator 27.8.1, SVG Export Plug-In . SVG Version: 6.00 Build 0)  -->
<svg version="1.1" id="outline" xmlns="http://www.w3.org/2000/svg" xmlns:xlink="http://www.w3.org/1999/xlink" x="0px" y="0px"
	 viewBox="0 0 512 512" style="enable-background:new 0 0 512 512;" xml:space="preserve">
<style type="text/css">
	.st0{fill:#021DA3;}
	.st1{fill:#11E2AB;}
	.st2{fill:none;stroke:#021DA3;stroke-width:17.0079;stroke-linecap:round;stroke-linejoin:round;stroke-miterlimit:13.3333;}
	.st3{fill:none;}
	.st4{fill:none;stroke:#021DA3;stroke-width:17.0079;stroke-miterlimit:10;}
	.st5{fill:none;stroke:#11E2AB;stroke-width:17.0079;stroke-linecap:round;stroke-linejoin:round;stroke-miterlimit:13.3333;}
	.st6{fill:none;stroke:#021DA3;stroke-width:14.1732;stroke-miterlimit:10;}
	.st7{fill:none;stroke:#11E2AB;stroke-width:20;stroke-linecap:round;stroke-linejoin:round;stroke-miterlimit:13.3333;}
</style>
<path class="st0" d="M454,53.8h-85c-3.6,0-6.6,3-6.6,6.6s3,6.6,6.6,6.6h85c7.9,0,14.3,6.4,14.3,14.3v251.1H43.7V81.3
	C43.7,73.4,50.1,67,58,67h280.2c3.6,0,6.6-3,6.6-6.6c0-3.6-3-6.6-6.6-6.6H58c-15.2,0-27.5,12.3-27.5,27.5v272
	c0,15.2,12.3,27.5,27.5,27.5h63.3c3.6,0,6.6-3,6.6-6.6c0-3.6-3-6.6-6.6-6.6H58c-7.9,0-14.3-6.4-14.3-14.3v-7.7h424.7v7.7
	c0,7.9-6.4,14.3-14.3,14.3H151.8c-3.6,0-6.6,3-6.6,6.6c0,3.6,3,6.6,6.6,6.6h41.6l-6.5,37.7h-12.1c-10.9,0-19.8,8.9-19.8,19.8
	s8.9,19.8,19.8,19.8h162.5c10.9,0,19.8-8.9,19.8-19.8s-8.9-19.8-19.8-19.8h-12.1l-6.5-37.7H454c15.2,0,27.5-12.3,27.5-27.5v-272
	C481.5,66.1,469.2,53.8,454,53.8L454,53.8z M311.8,418.5h-18c-3.6,0-6.6,3-6.6,6.6c0,3.6,3,6.6,6.6,6.6h43.5c3.6,0,6.6,3,6.6,6.6
	c0,3.6-3,6.6-6.6,6.6H174.8c-3.6,0-6.6-3-6.6-6.6c0-3.6,3-6.6,6.6-6.6h88.2c3.6,0,6.6-3,6.6-6.6c0-3.6-3-6.6-6.6-6.6h-62.7l6.5-37.7
	h98.5L311.8,418.5z"/>
<path class="st0" d="M387.9,221c-2.5,0-4.8,1.4-5.9,3.6l-31.2,61.3l-26.3-51.7c-1.1-2.2-3.4-3.6-5.9-3.6s-4.8,1.4-5.9,3.6l-14.3,28
	h-22.8c-3.6,0-6.6,3-6.6,6.6s3,6.6,6.6,6.6h26.8c2.5,0,4.8-1.4,5.9-3.6l10.2-20.1l26.3,51.7c1.1,2.2,3.4,3.6,5.9,3.6
	s4.8-1.4,5.9-3.6l31.2-61.3l15.1,29.6c1.1,2.2,3.4,3.6,5.9,3.6h26.8c3.6,0,6.6-3,6.6-6.6s-3-6.6-6.6-6.6h-22.8l-19.1-37.6
	C392.7,222.4,390.4,221,387.9,221z"/>
<path class="st0" d="M275.7,201.4H310c3.6,0,6.6-3,6.6-6.6v-69.6c0-3.6-3-6.6-6.6-6.6h-34.3c-3.6,0-6.6,3-6.6,6.6v69.6
	C269.1,198.5,272.1,201.4,275.7,201.4z M282.3,131.9h21.1v56.3h-21.1V131.9z"/>
<path class="st0" d="M373.1,137.6h-34.3c-3.6,0-6.6,3-6.6,6.6v50.7c0,3.6,3,6.6,6.6,6.6h34.3c3.6,0,6.6-3,6.6-6.6v-50.7
	C379.7,140.5,376.7,137.6,373.1,137.6z M366.5,188.2h-21.1v-37.4h21.1V188.2z"/>
<path class="st0" d="M435.7,201.4c3.6,0,6.6-3,6.6-6.6v-87c0-3.6-3-6.6-6.6-6.6h-34.3c-3.6,0-6.6,3-6.6,6.6v87c0,3.6,3,6.6,6.6,6.6
	H435.7z M408,114.4h21.1v73.8H408V114.4z"/>
<path class="st1" d="M226,176H76.2c-3.6,0-6.6,3-6.6,6.6c0,3.6,3,6.6,6.6,6.6H226c3.6,0,6.6-3,6.6-6.6
	C232.6,178.9,229.6,176,226,176z"/>
<path class="st1" d="M76.2,224.3H103c3.6,0,6.6-3,6.6-6.6s-3-6.6-6.6-6.6H76.2c-3.6,0-6.6,3-6.6,6.6S72.5,224.3,76.2,224.3z"/>
<path class="st1" d="M226,211.1h-92.7c-3.6,0-6.6,3-6.6,6.6s3,6.6,6.6,6.6H226c3.6,0,6.6-3,6.6-6.6S229.6,211.1,226,211.1z"/>
<path class="st1" d="M226,101.2H76.2c-3.6,0-6.6,3-6.6,6.6c0,3.6,3,6.6,6.6,6.6H226c3.6,0,6.6-3,6.6-6.6
	C232.6,104.2,229.6,101.2,226,101.2z"/>
<path class="st1" d="M76.2,149.5h92.9c3.6,0,6.6-3,6.6-6.6c0-3.6-3-6.6-6.6-6.6H76.2c-3.6,0-6.6,3-6.6,6.6
	C69.6,146.6,72.5,149.5,76.2,149.5z"/>
<path class="st1" d="M226,136.3h-26.6c-3.6,0-6.6,3-6.6,6.6s3,6.6,6.6,6.6H226c3.6,0,6.6-3,6.6-6.6
	C232.6,139.3,229.6,136.3,226,136.3z"/>
<path class="st1" d="M232.6,252.3c0-3.6-3-6.6-6.6-6.6H76.2c-3.6,0-6.6,3-6.6,6.6c0,3.6,3,6.6,6.6,6.6H226
	C229.6,259,232.6,256,232.6,252.3L232.6,252.3z"/>
<path class="st1" d="M76.2,280.7c-3.6,0-6.6,3-6.6,6.6c0,3.6,3,6.6,6.6,6.6h70.5c3.6,0,6.6-3,6.6-6.6c0-3.6-3-6.6-6.6-6.6H76.2z"/>
</svg>
