<?xml version="1.0" encoding="utf-8"?>
<!-- Generator: Adobe Illustrator 27.8.1, SVG Export Plug-In . SVG Version: 6.00 Build 0)  -->
<svg version="1.1" id="outline" xmlns="http://www.w3.org/2000/svg" xmlns:xlink="http://www.w3.org/1999/xlink" x="0px" y="0px"
	 viewBox="0 0 508.6 507.6" style="enable-background:new 0 0 508.6 507.6;" xml:space="preserve">
<style type="text/css">
	.st0{fill:#021DA3;}
	.st1{fill:#11E2AB;}
	.st2{fill:none;stroke:#021DA3;stroke-width:17.0079;stroke-linecap:round;stroke-linejoin:round;stroke-miterlimit:13.3333;}
	.st3{fill:none;}
	.st4{fill:none;stroke:#021DA3;stroke-width:17.0079;stroke-miterlimit:10;}
	.st5{fill:none;stroke:#11E2AB;stroke-width:17.0079;stroke-linecap:round;stroke-linejoin:round;stroke-miterlimit:13.3333;}
	.st6{fill:none;stroke:#021DA3;stroke-width:14.1732;stroke-miterlimit:10;}
	.st7{fill:none;stroke:#11E2AB;stroke-width:20;stroke-linecap:round;stroke-linejoin:round;stroke-miterlimit:13.3333;}
	.st8{fill-rule:evenodd;clip-rule:evenodd;fill:#021DA3;}
	.st9{fill-rule:evenodd;clip-rule:evenodd;fill:#11E2AB;}
	.st10{fill:none;stroke:#11E2AB;stroke-width:17.0079;stroke-linecap:square;stroke-linejoin:round;stroke-miterlimit:10;}
</style>
<path class="st0" d="M422.3,222.2c13.1-9.2,21.8-24.6,21.8-41.8c0-28.3-22.9-51.1-51.1-51.1s-51.1,22.9-51.1,51.1
	c0,17.3,8.6,32.6,21.8,41.8c-11.3,3.9-21.5,9.9-30.2,17.7c-12-10.2-26.1-18-41.5-22.6c18.7-11.3,31.3-32,31.3-55.5
	c0-35.8-29-64.8-64.8-64.8s-64.8,29.1-64.8,64.8c0,23.5,12.5,44.1,31.3,55.5c-15.2,4.6-29.2,12.3-41,22.3
	c-8.7-7.6-18.8-13.6-29.9-17.4c13.1-9.2,21.8-24.6,21.8-41.8c0-28.3-22.9-51.1-51.1-51.1s-51.1,22.9-51.1,51.1
	c0,17.3,8.6,32.6,21.8,41.8c-35.2,12.1-60.4,45.6-60.4,84.8v5.8c0,0.2,0.2,0.4,0.4,0.4h108.4c-0.6,4.9-1,9.9-1,15v6
	c0,26.1,21.1,47.2,47.2,47.2h137.4c26.1,0,47.2-21.1,47.2-47.2v-6c0-5.1-0.4-10.1-1-15h109.1c0.2,0,0.4-0.2,0.4-0.4v-5.8
	C482.7,267.8,457.5,234.4,422.3,222.2z M356,180.3c0-20.4,16.6-37,37-37c20.4,0,37,16.6,37,37c0,20.1-16.2,36.5-36.3,37
	c-0.3,0-0.4,0-0.7,0c-0.3,0-0.4,0-0.7,0C372.2,216.9,356,200.5,356,180.3z M207.7,161.9c0-27.9,22.7-50.6,50.6-50.6
	s50.6,22.7,50.6,50.6c0,26.9-21.2,49-47.7,50.5c-1,0-1.9,0-2.9,0s-1.9,0-2.9,0C228.8,210.9,207.7,188.8,207.7,161.9z M87.5,180.3
	c0-20.4,16.6-37,37-37s37,16.6,37,37c0,20.1-16.2,36.5-36.3,37c-0.3,0-0.4,0-0.7,0c-0.3,0-0.4,0-0.7,0
	C103.7,216.9,87.5,200.5,87.5,180.3z M146.1,299.1H49.3c4-37.8,35.9-67.4,74.6-67.6c0.2,0,0.4,0,0.5,0s0.4,0,0.5,0
	c18.4,0.1,35.3,6.9,48.3,18C160.5,263.3,151,280.3,146.1,299.1z M360,334.4c0,18.2-14.8,33-33,33H189.7c-18.2,0-33-14.8-33-33v-6
	c0-55,44-100.1,98.7-101.7c1,0.1,2,0.1,3,0.1c1,0,2,0,3-0.1c54.7,1.6,98.7,46.6,98.7,101.7V334.4z M370.6,299.1
	c-4.9-18.7-14.2-35.5-26.9-49.3c13.1-11.3,30.1-18.2,48.7-18.3c0.2,0,0.4,0,0.5,0c0.2,0,0.4,0,0.5,0c38.7,0.3,70.6,29.9,74.6,67.6
	H370.6z"/>
</svg>
