<?xml version="1.0" encoding="utf-8"?>
<!-- Generator: Adobe Illustrator 27.8.1, SVG Export Plug-In . SVG Version: 6.00 Build 0)  -->
<svg version="1.1" id="outline" xmlns="http://www.w3.org/2000/svg" xmlns:xlink="http://www.w3.org/1999/xlink" x="0px" y="0px"
	 viewBox="0 0 512 512" style="enable-background:new 0 0 512 512;" xml:space="preserve">
<style type="text/css">
	.st0{fill:#021DA3;}
	.st1{fill:#11E2AB;}
	.st2{fill:none;stroke:#021DA3;stroke-width:17.0079;stroke-linecap:round;stroke-linejoin:round;stroke-miterlimit:13.3333;}
	.st3{fill:none;}
	.st4{fill:none;stroke:#021DA3;stroke-width:17.0079;stroke-miterlimit:10;}
	.st5{fill:none;stroke:#11E2AB;stroke-width:17.0079;stroke-linecap:round;stroke-linejoin:round;stroke-miterlimit:13.3333;}
	.st6{fill:none;stroke:#021DA3;stroke-width:14.1732;stroke-miterlimit:10;}
	.st7{fill:none;stroke:#11E2AB;stroke-width:20;stroke-linecap:round;stroke-linejoin:round;stroke-miterlimit:13.3333;}
</style>
<path id="path877" class="st4" d="M298.1,269.2l53,53l-28.9,28.9l-53-53"/>
<g id="g887" transform="translate(457.7275,110.1191)">
	<path id="path889" class="st4" d="M-19.2,277.9l38.7,38.7c5,5,5,13.2,0,18.3l-32.3,32.3c-5,5-13.2,5-18.3,0l-106.3-106.3
		c-5-5-5-13.2,0-18.3l32.3-32.3c5-5,13.2-5,18.3,0l45.9,45.9"/>
</g>
<g id="g891" transform="translate(287.6104,456.6187)">
	<path id="path893" class="st4" d="M-3-382.2C55-324.1,55-230-3-172s-152.1,58-210.2,0s-58-152.1,0-210.2S-61-440.2-3-382.2z"/>
</g>
<g id="g895" transform="translate(64.209,273.7432)">
	<path id="path897" class="st4" d="M18.2-33.8c4.5,7.3,9.9,14.1,16.2,20.4c44.7,44.7,117,44.7,161.7,0c44.6-44.7,44.6-117,0-161.7
		c-44.7-44.7-117-44.7-161.7,0C4.1-144.7-5.6-101.6,5.3-63l0.5,1.6"/>
</g>
<g id="g899" transform="translate(165.2354,377.1602)">
	<path id="path901" class="st5" d="M8.6-230.8l-24.7,24.4"/>
</g>
<g id="g903" transform="translate(206.3755,372.7104)">
	<path id="path905" class="st5" d="M4.7-222.3L-58.4-160"/>
</g>
</svg>
