<?xml version="1.0" encoding="UTF-8"?>
<svg id="Layer_1" data-name="Layer 1" xmlns="http://www.w3.org/2000/svg" viewBox="0 0 214.21 50.04">
  <defs>
    <style>
      .cls-1 {
        fill: #021da5;
      }

      .cls-1, .cls-2, .cls-3, .cls-4 {
        stroke-width: 0px;
      }

      .cls-2 {
        fill: #fff;
      }

      .cls-3 {
        fill: #2574ff;
      }

      .cls-4 {
        fill: #11e3ab;
      }
    </style>
  </defs>
  <g>
    <path class="cls-1" d="m2.28,25.03v.23l.06-.03c-.04-.06-.06-.13-.06-.2Z"/>
    <path class="cls-1" d="m14.99,19.1l3.69-1.79c4.97-2.41,8.12-7.44,8.12-12.97V1.51L2.72,13.17l12.27,5.94Z"/>
    <path class="cls-2" d="m37.16,29.19l3.55-2.08c.81,2.14,2.44,3.22,4.84,3.22s3.37-.93,3.37-2.23c0-.75-.33-1.33-.99-1.71-.66-.42-1.83-.87-3.55-1.35-1.89-.57-3.04-1.02-4.36-1.96-1.29-.96-1.98-2.41-1.98-4.33s.66-3.43,2.02-4.54c1.35-1.14,3.01-1.71,4.9-1.71,3.4,0,6.07,1.75,7.52,4.73l-3.49,2.02c-.84-1.81-2.2-2.71-4.03-2.71-1.71,0-2.77.87-2.77,2.11,0,.66.27,1.2.81,1.63.57.39,1.62.84,3.19,1.33l1.44.48c.33.09.78.27,1.35.51.57.21,1.02.42,1.32.63.63.39,1.6,1.14,1.98,1.87.45.72.78,1.78.78,2.98,0,1.96-.72,3.49-2.14,4.64-1.41,1.14-3.25,1.71-5.5,1.71-4.18,0-7.09-1.99-8.27-5.21Z"/>
    <path class="cls-2" d="m54.39,14.74c0-1.29,1.08-2.41,2.38-2.41s2.41,1.11,2.41,2.41-1.08,2.38-2.41,2.38-2.38-1.08-2.38-2.38Zm.45,19.24v-15.05h3.88v15.05h-3.88Z"/>
    <path class="cls-2" d="m61.51,33.97V12h3.88v21.98h-3.88Z"/>
    <path class="cls-2" d="m82.06,33.97h-4.51l-5.47-6.83v6.83h-3.88V12.9h3.88v12.64l5.17-6.62h4.63l-6.05,7.43,6.22,7.61Z"/>
    <path class="cls-2" d="m92.7,18.92h4.15l-5.47,15.05c-1.56,4.33-4.09,6.23-7.94,6.02v-3.61c2.08.03,3.22-.84,3.94-2.89l-6.17-14.57h4.24l3.91,10.11,3.34-10.11Z"/>
    <path class="cls-2" d="m103.8,29.19l3.55-2.08c.81,2.14,2.44,3.22,4.84,3.22s3.37-.93,3.37-2.23c0-.75-.33-1.33-.99-1.71-.66-.42-1.83-.87-3.55-1.35-1.89-.57-3.04-1.02-4.36-1.96-1.29-.96-1.98-2.41-1.98-4.33s.66-3.43,2.02-4.54c1.35-1.14,3.01-1.71,4.9-1.71,3.4,0,6.07,1.75,7.52,4.73l-3.49,2.02c-.84-1.81-2.2-2.71-4.03-2.71-1.71,0-2.77.87-2.77,2.11,0,.66.27,1.2.81,1.63.57.39,1.62.84,3.19,1.33l1.44.48c.33.09.78.27,1.35.51.57.21,1.02.42,1.32.63.63.39,1.6,1.14,1.98,1.87.45.72.78,1.78.78,2.98,0,1.96-.72,3.49-2.14,4.64-1.41,1.14-3.25,1.71-5.5,1.71-4.18,0-7.1-1.99-8.27-5.21Z"/>
    <path class="cls-2" d="m130.68,18.92h4.15l-5.47,15.05c-1.56,4.33-4.09,6.23-7.94,6.02v-3.61c2.08.03,3.22-.84,3.94-2.89l-6.17-14.57h4.24l3.91,10.11,3.34-10.11Z"/>
    <path class="cls-2" d="m141.96,24.85c2.2.45,5.05,1.5,5.02,4.73,0,1.54-.57,2.74-1.74,3.58-1.14.81-2.59,1.23-4.3,1.23-3.1,0-5.2-1.2-6.32-3.58l3.37-1.9c.45,1.29,1.41,1.96,2.95,1.96,1.38,0,2.08-.42,2.08-1.29,0-.81-1.2-1.27-2.74-1.66-2.23-.57-5.02-1.5-5.02-4.64,0-1.48.54-2.65,1.62-3.49,1.11-.87,2.47-1.29,4.09-1.29,2.44,0,4.54,1.14,5.72,3.19l-3.31,1.81c-.48-1.02-1.29-1.54-2.41-1.54-.99,0-1.74.48-1.74,1.23,0,.82,1.21,1.27,2.74,1.66Z"/>
    <path class="cls-2" d="m157.53,22.65h-3.4v6.26c0,1.63,1.17,1.66,3.4,1.54v3.52c-5.32.6-7.28-.93-7.28-5.06v-6.26h-2.62v-3.73h2.62v-3.04l3.88-1.18v4.21h3.4v3.73h0Z"/>
    <path class="cls-2" d="m163.06,28.04c.51,1.9,1.93,2.83,4.24,2.83,1.47,0,2.62-.51,3.37-1.5l3.13,1.81c-1.47,2.14-3.67,3.22-6.56,3.22-2.5,0-4.48-.75-5.99-2.26-1.5-1.5-2.25-3.4-2.25-5.69s.75-4.16,2.23-5.66c1.47-1.54,3.4-2.29,5.71-2.29s4.03.75,5.44,2.29c1.44,1.54,2.17,3.4,2.17,5.66,0,.51-.06,1.02-.15,1.6h-11.34Zm7.61-3.01c-.45-2.05-1.95-3.04-3.73-3.04-2.08,0-3.49,1.11-3.94,3.04h7.67Z"/>
    <path class="cls-2" d="m198.82,24.7v9.27h-3.88v-9c0-1.81-.93-2.86-2.53-2.86-1.77,0-2.8,1.2-2.8,3.4v8.46h-3.88v-9c0-1.81-.93-2.86-2.52-2.86-1.71,0-2.83,1.2-2.83,3.4v8.46h-3.88v-15.05h3.88v1.6c.9-1.35,2.29-2.02,4.18-2.02s3.22.72,4.09,2.17c.99-1.44,2.5-2.17,4.48-2.17,3.46,0,5.68,2.44,5.68,6.2Z"/>
    <path class="cls-2" d="m207.69,24.85c2.2.45,5.05,1.5,5.02,4.73,0,1.54-.57,2.74-1.74,3.58-1.14.81-2.59,1.23-4.3,1.23-3.1,0-5.2-1.2-6.32-3.58l3.37-1.9c.45,1.29,1.41,1.96,2.95,1.96,1.38,0,2.08-.42,2.08-1.29,0-.81-1.2-1.27-2.74-1.66-2.23-.57-5.02-1.5-5.02-4.64,0-1.48.54-2.65,1.62-3.49,1.11-.87,2.47-1.29,4.09-1.29,2.44,0,4.54,1.14,5.72,3.19l-3.31,1.81c-.48-1.02-1.29-1.54-2.41-1.54-.99,0-1.74.48-1.74,1.23,0,.82,1.2,1.27,2.74,1.66Z"/>
    <path class="cls-1" d="m26.8,36.04v-10.56c0-.14-.08-.27-.21-.33L2.28,13.38v10.38c0,.92.52,1.75,1.35,2.15l23.17,11.22v-1.09Z"/>
    <path class="cls-3" d="m26.8,25.48v-.23l-.06.03c.04.06.06.13.06.2Z"/>
  </g>
  <path class="cls-4" d="m14.1,31.41l-3.69,1.79c-4.97,2.41-8.12,7.44-8.12,12.97v2.84l24.08-11.66-12.26-5.94Z"/>
</svg>