<?xml version="1.0" encoding="utf-8"?>
<!-- Generator: Adobe Illustrator 27.8.1, SVG Export Plug-In . SVG Version: 6.00 Build 0)  -->
<svg version="1.1" id="Layer_1" xmlns="http://www.w3.org/2000/svg" xmlns:xlink="http://www.w3.org/1999/xlink" x="0px" y="0px"
	 viewBox="0 0 512 512" style="enable-background:new 0 0 512 512;" xml:space="preserve">
<style type="text/css">
	.st0{fill:#021DA3;}
</style>
<g>
	<g>
		<path class="st0" d="M256,0C114.8,0,0,114.8,0,256s114.8,256,256,256s256-114.8,256-256S397.2,0,256,0z M357.8,265l-149.3,96
			c-1.8,1.1-3.8,1.7-5.8,1.7c-1.8,0-3.5-0.4-5.1-1.3c-3.4-1.9-5.6-5.5-5.6-9.4V160c0-3.9,2.1-7.5,5.6-9.4c3.4-1.9,7.6-1.7,10.9,0.4
			l149.3,96c3,2,4.9,5.3,4.9,9C362.7,259.6,360.8,263,357.8,265z"/>
	</g>
</g>
</svg>
